<?xml version="1.0" encoding="UTF-8"?>
<svg width="1200pt" height="1200pt" version="1.1" viewBox="0 0 1200 1200" xmlns="http://www.w3.org/2000/svg">
 <g>
  <path d="m1198.4 469.6c-24.832-38.793-63.641-59.859-100.61-54.77-11.102 1.5586-21.902 5.5586-31.703 12.074-0.42188 0.28516-0.78906 0.61719-1.1602 0.94922-0.14453 0.085937-0.30078 0.14062-0.44531 0.23438-22.75 15.121-36.039 39.223-36.516 63.48-11.699-4.9297-24.883-6.5234-37.918-4.6484-11.648 1.6445-23.32 5.9766-34.004 13.07-0.55078 0.36719-1.0508 0.78906-1.5078 1.2383-0.60547 0.25-1.2031 0.55469-1.7656 0.92969-22.531 14.98-35.758 38.77-36.473 62.797-12.363-5.8984-26.609-7.9258-40.684-5.9023-11.656 1.6445-23.32 5.9766-34.004 13.07-0.5625 0.37109-1.0664 0.79688-1.5312 1.2539-0.59766 0.25-1.1836 0.54688-1.7422 0.91797-18.348 12.199-30.508 30.242-34.789 49.488l-154.17-231.26c-0.003906-0.003907-0.003906-0.003907-0.003906-0.003907-20.207-30.238-53.023-46.363-83.934-42.113-10.027 1.4102-19.809 5.0664-28.512 11.094l0.003907 0.003906c-11.883 8.1953-20.359 19.805-25.227 32.859-4.8828 13.07-6.2461 27.605-4.1914 42.199 1.6992 12.074 5.8008 24.199 12.258 35.629 0.25 0.67188 0.57031 1.3281 0.97266 1.957l172.83 270.02c-9.9844 11.574-15.617 26.609-18.199 43.406-2.6367 17.25-2.1367 36.562 0.73438 56.984 9.4805 66.312 43.781 144.7 87.113 195.43 29.172 33.992 59.449 59.949 87.98 76.93 28.559 16.879 55.418 25.207 78.793 22.039 0.019531 0 0.046874-0.007813 0.066406-0.007813 8.4023-1.1836 16.305-3.9961 23.207-8.5703 4.7773-3.1641 6.0898-9.5977 2.9219-14.371-3.1602-4.7773-9.5977-6.0938-14.371-2.9297-4.1328 2.7227-8.9648 4.5234-14.734 5.3438-15.887 2.375-39.207-3.7461-65.289-19.34-26.098-15.496-54.91-40.031-82.836-72.605-0.007812-0.007812-0.015625-0.015625-0.027343-0.027344-40.148-46.621-73.727-123.16-82.289-184.79-2.6758-18.926-3.0117-36.406-0.77734-50.941 1.7305-11.344 5.0273-20.727 9.6211-27.926l135.09 211.07c2.2617 3.5234 6.2969 5.2305 10.191 4.6836 1.4297-0.19922 2.8398-0.70703 4.1406-1.543 4.8281-3.082 6.2344-9.5 3.1445-14.324l-317.02-495.28 0.058594-0.039063h-0.003906c-7.1602-10.734-11.449-22.367-13.047-33.695-1.6211-11.449-0.46875-22.539 3.082-32.039 3.5742-9.5195 9.4492-17.426 17.594-23.059l-5.2578-7.6094 5.2617 7.6055c5.9844-4.1328 12.586-6.6172 19.609-7.6133 21.473-3.1445 47.477 8.5625 63.773 33.086l0.003906-0.003906 179.64 269.48c0.14453 0.21094 0.30859 0.40234 0.46484 0.59766 0.13672 0.17578 0.26562 0.36719 0.41406 0.53516 0.17578 0.19922 0.375 0.37891 0.5625 0.5625 0.17188 0.16406 0.32813 0.33594 0.50781 0.48828 0.19531 0.16406 0.41016 0.30078 0.61719 0.45312 0.1875 0.13672 0.375 0.28516 0.57422 0.41406 0.21094 0.13281 0.4375 0.23828 0.66016 0.35547 0.20703 0.10938 0.41016 0.23047 0.625 0.32422 0.22266 0.10156 0.45703 0.17188 0.6875 0.25 0.22266 0.082031 0.44531 0.17578 0.67187 0.24219 0.23828 0.066407 0.48438 0.10547 0.72656 0.15625 0.22656 0.046876 0.45312 0.10938 0.68359 0.14453 0.27344 0.039062 0.54688 0.042968 0.82031 0.058594 0.20703 0.011718 0.41406 0.042968 0.61719 0.042968 0.48438-0.003906 0.96875-0.035156 1.4492-0.10156 0.72656-0.10156 1.4531-0.28516 2.1602-0.54688 0.25-0.09375 0.48047-0.25 0.72656-0.36328 0.42188-0.19531 0.85547-0.36328 1.2578-0.62109 0.027343-0.019532 0.050781-0.046875 0.078125-0.0625s0.058594-0.027344 0.078125-0.042969c0.25-0.16797 0.45703-0.37891 0.6875-0.5625 0.29688-0.23438 0.60547-0.45703 0.875-0.71484 0.21094-0.21094 0.37891-0.45312 0.57031-0.67578 0.24609-0.29688 0.51172-0.57812 0.72266-0.89453 0.16797-0.24609 0.28125-0.51172 0.42187-0.76562 0.17969-0.32812 0.37891-0.65234 0.52734-1 0.11328-0.27344 0.17578-0.5625 0.27344-0.84375 0.11328-0.34766 0.24219-0.69141 0.31641-1.0547 0.058594-0.29297 0.070312-0.59375 0.10938-0.89453 0.042969-0.35938 0.10156-0.71875 0.10938-1.082 0.003906-0.30469-0.042969-0.61328-0.0625-0.91797-0.027344-0.35938-0.035156-0.71484-0.097656-1.0703-0.058594-0.3125-0.16797-0.61719-0.25391-0.92578-0.09375-0.34766-0.17188-0.69531-0.30469-1.0312-0.12109-0.30469-0.29688-0.59766-0.45312-0.89453-0.15234-0.29688-0.26562-0.60156-0.44531-0.88672-3.2969-5.1523-5.3047-10.777-6.1484-16.695-2.7188-18.699 6.8984-40.719 26.824-53.875 0.5625-0.37109 1.0664-0.79688 1.5312-1.2539 0.59766-0.25 1.1836-0.55078 1.7422-0.92187 8.1406-5.4062 16.879-8.6094 25.441-9.8164 19.043-2.6133 36.535 4.3672 45.883 18.977 0.14844 0.23047 0.32031 0.42969 0.48438 0.64453 0.39062 0.66797 0.77734 1.3398 1.1992 1.9961 2.2578 3.5312 6.2969 5.2305 10.199 4.6797 1.4258-0.19922 2.8398-0.70312 4.1328-1.5352 4.8281-3.0898 6.2305-9.5039 3.1445-14.328h-0.003906c-3.2852-5.1523-5.3008-10.77-6.1406-16.695-2.7188-18.703 6.8984-40.719 26.824-53.883 0.5625-0.37109 1.0625-0.79688 1.5273-1.25 0.60547-0.25 1.1953-0.55078 1.7539-0.92578 8.1289-5.3984 16.871-8.6016 25.426-9.8086 16.188-2.2188 31.23 2.5078 41.121 12.934 1.0938 2.3008 2.3203 4.5508 3.7188 6.7383 2.2578 3.5273 6.2969 5.2305 10.199 4.6797 1.4297-0.19922 2.8359-0.70313 4.1328-1.5352 0.22266-0.14453 0.40234-0.32422 0.60938-0.48047 0.14062-0.082031 0.29297-0.125 0.43359-0.21875 4.8281-3.0859 6.2266-9.4961 3.1484-14.328h-0.003906c-1.3711-2.1406-2.8867-4.1328-4.4648-6.0391-1.2969-3.2031-2.2305-6.5234-2.7188-9.9648-2.7188-18.703 6.8984-40.723 26.82-53.883 0.41406-0.27344 0.76953-0.60547 1.1328-0.92578 0.16406-0.09375 0.33594-0.15625 0.49219-0.25781 7.2344-4.8047 15-7.668 23.121-8.8203 26.727-3.8945 58.73 11.797 80.246 45.414 2.2578 3.5312 6.2969 5.2305 10.195 4.6797 1.4258-0.20312 2.8398-0.71094 4.1328-1.5391 4.8008-3.0977 6.2148-9.5117 3.1211-14.336z"/>
  <path d="m16.883 666.84h-16.883c0 27.988 22.664 50.652 50.652 50.652v-16.887c-18.672-0.03125-33.73-15.094-33.77-33.766zm989.17-555.79v388.35h16.883v-388.35zm-1006.1 0 0.0039062 555.79h16.879v-555.79c0.039063-18.672 15.098-33.734 33.77-33.77v-16.887c-27.988 0-50.652 22.664-50.652 50.656zm972.29-50.656h-921.63v16.883h921.63c18.668 0.035157 33.73 15.098 33.766 33.766h16.883c0.003906-27.98-22.66-50.648-50.648-50.648zm-921.63 657.1h631.77v-16.879h-631.77z"/>
  <path d="m562.83 518.83c-25.965-1.7305-49.27-12.93-66.59-30.234-18.859-18.871-30.492-44.844-30.496-73.625 0.003906-28.781 11.637-54.758 30.496-73.625 18.871-18.859 44.844-30.492 73.625-30.5 28.777 0.003906 54.754 11.641 73.621 30.5 18.859 18.871 30.496 44.844 30.5 73.625-0.003906 12.355-2.1602 24.191-6.1055 35.176h17.777c3.3789-11.133 5.2109-22.938 5.2148-35.176-0.007813-66.836-54.176-121-121.01-121.01-66.836 0.003906-121 54.172-121.01 121.01 0.003906 64.473 50.414 117.14 113.97 120.79l-0.003906-16.93z"/>
 </g>
</svg>
